<?xml version="1.0" encoding="UTF-8" standalone="no"?>
<svg
   width="36"
   height="36"
   viewBox="0 0 100 100"
   version="1.1"
   id="svg8"
   xmlns="http://www.w3.org/2000/svg">
  <defs
     id="defs8" />
  <line
     x1="36.338177"
     y1="67.174728"
     x2="49.478161"
     y2="79.993469"
     stroke="#000000"
     stroke-width="4.43842"
     id="line6" />
  <path
     style="fill:#000000;fill-opacity:1;stroke:#000000;stroke-width:9.94416;stroke-dasharray:none;stroke-opacity:1"
     d="M 75.070393,36.10604 51.649207,82.986998 c 0,0 -7.772655,10.339163 -24.448968,1.082606 C 10.952152,75.05073 20.283779,65.171702 20.283779,65.171702 L 57.97459,25.112397 c 0,0 6.053608,-3.095533 13.045654,1.223996 7.380215,4.559341 4.050149,9.769647 4.050149,9.769647 z"
     id="path1" />
  <ellipse
     style="fill:#ffffff;fill-opacity:1;stroke:none;stroke-width:0;stroke-dasharray:none;stroke-opacity:1"
     id="path2"
     transform="matrix(0.92475664,0.380559,-0.43353323,0.90113758,0,0)"
     ry="6.2965183"
     rx="9.585803"
     cy="3.7532399"
     cx="73.196114" />
  <ellipse
     style="fill:#d8df00;fill-opacity:1;stroke:none;stroke-width:8.38634;stroke-linecap:round;stroke-miterlimit:2.8;stroke-opacity:0.351967"
     id="path4"
     cx="-34.370716"
     cy="57.816086"
     rx="3.095963"
     ry="1.4470094"
     transform="matrix(0.66026956,-0.7510287,0.77638131,0.63026349,0,0)" />
  <path
     style="fill:#b05d2c;fill-opacity:1;stroke:none;stroke-width:7.53404;stroke-linecap:round;stroke-miterlimit:2.8;stroke-opacity:0.351967"
     d="m 10.993727,94.104156 3.620092,-10.109828 19.79738,-16.523591 17.874209,0.1087 17.082309,17.17584 1.470663,9.674996"
     id="path5" />
  <ellipse
     style="fill:#000000;fill-opacity:1;stroke:none;stroke-width:4.19094;stroke-linecap:round;stroke-miterlimit:2.8;stroke-opacity:0.351967"
     id="path6"
     ry="4.0221901"
     rx="4.6382418"
     cy="76.745338"
     cx="42.886219" />
  <path
     style="fill:#d8df00;fill-opacity:1;stroke:none;stroke-width:8.33595;stroke-linecap:round;stroke-miterlimit:2.8;stroke-opacity:0.351967"
     d="M 56.441718,23.680982 C 54.478528,18.404909 51.533742,6.01227 51.533742,6.01227 L 63.435584,17.055215 65.276076,8.7116565 67.361964,16.809816 73.987731,1.7177914 75.950922,10.797546 95.214725,1.7177915 84.171779,21.717791 98.773006,22.453988 84.294478,27.975461 96.441717,32.392639 73.251535,36.809816 C 68.834357,41.226994 51.656441,33.865032 57.791411,26.257669"
     id="path7" />
  <path
     style="fill:#df0000;fill-opacity:1;stroke:none;stroke-width:8.33595;stroke-linecap:round;stroke-miterlimit:2.8;stroke-opacity:0.351967"
     d="M 63.435584,29.202453 V 21.96319 l 4.539878,4.04908 8.834355,-8.834356 -2.208589,8.957056 6.993864,1.226993 -12.147239,5.644173 -4.539877,-0.4908"
     id="path8" />
</svg>
