<?xml version="1.0" encoding="UTF-8" standalone="no"?>
<svg
   width="36"
   height="36"
   viewBox="0 0 100 100"
   version="1.1"
   id="svg8"
   xmlns:xlink="http://www.w3.org/1999/xlink"
   xmlns="http://www.w3.org/2000/svg">
  <defs
     id="defs8">
    <linearGradient
       id="linearGradient7">
      <stop
         style="stop-color:#e80000;stop-opacity:1;"
         offset="0"
         id="stop8" />
      <stop
         style="stop-color:#000000;stop-opacity:1;"
         offset="0.50346947"
         id="stop9" />
    </linearGradient>
    <linearGradient
       xlink:href="#linearGradient7"
       id="linearGradient9"
       x1="29.879972"
       y1="75.816803"
       x2="24.970898"
       y2="60.590363"
       gradientUnits="userSpaceOnUse"
       gradientTransform="rotate(8.8580548,-16.859019,26.161341)" />
  </defs>
  <!-- Fat, rounded body -->
  <ellipse
     cx="44.475605"
     cy="58.559464"
     rx="18"
     ry="20"
     stroke="#000000"
     stroke-width="3"
     fill="#ffffff"
     id="ellipse1"
     style="fill:#ffffff;fill-opacity:1" />
  <!-- Head with big eyes -->
  <circle
     cx="36.618862"
     cy="33.032604"
     r="14"
     stroke="#000000"
     stroke-width="3"
     fill="#ffffff"
     id="circle1"
     style="fill:#ffffff;fill-opacity:1" />
  <circle
     cx="31.774849"
     cy="31.751265"
     r="5"
     stroke="#000000"
     stroke-width="3"
     fill="#ffffff"
     id="circle2" />
  <circle
     cx="41.882294"
     cy="34.083736"
     r="5"
     fill="#000000"
     id="circle3" />
  <!-- Arms -->
  <!-- Legs -->
  <line
     x1="38.984558"
     y1="76.472519"
     x2="31.984556"
     y2="91.472519"
     stroke="#000000"
     stroke-width="4"
     id="line5" />
  <line
     x1="26.109673"
     y1="55.421612"
     x2="19.109673"
     y2="70.421608"
     stroke="#000000"
     stroke-width="4"
     id="line5-9" />
  <line
     x1="54.291248"
     y1="75.446045"
     x2="65.679756"
     y2="87.458611"
     stroke="#000000"
     stroke-width="4"
     id="line6" />
  <!-- Sword -->
  <path
     style="fill:#000000;fill-opacity:1;stroke:#000000;stroke-width:5.55556;stroke-dasharray:none"
     d="m 18.194692,29.46025 c 13.795942,-1.674786 24.951329,-3.704055 40.090312,-6.962095 -8.07525,0.491889 -8.385614,-2.781354 -11.92286,-4.567356 -3.537247,-1.786003 -1.515486,-7.46683 -9.271446,-5.93367 -14.853777,2.93622 -18.604314,6.279054 -18.896006,17.463121 z"
     id="path8" />
  <path
     style="fill:#000000;fill-opacity:1;stroke:#000000;stroke-width:8.96185;stroke-dasharray:none;stroke-opacity:1"
     d="m 87.860705,46.331279 -20.29929,43.932592 c 0,0 -6.73661,9.688933 -21.190076,1.014521 -14.08232,-8.451672 -5.99454,-17.709404 -5.99454,-17.709404 L 73.043665,36.029032 c 0,0 5.2467,-2.900854 11.30675,1.147018 6.39648,4.272601 3.51029,9.155229 3.51029,9.155229 z"
     id="path1" />
  <ellipse
     style="fill:#ffffff;fill-opacity:1;stroke:none;stroke-width:0;stroke-dasharray:none;stroke-opacity:1"
     id="path2"
     transform="rotate(23.986756)"
     ry="5.819787"
     rx="8.4091692"
     cy="5.6184297"
     cx="90.119377" />
  <circle
     id="path3"
     style="fill:#000000;stroke:#000000;stroke-width:2.77778"
     cx="42.96656"
     cy="70.9562"
     r="0" />
  <path
     style="fill:none;fill-opacity:1;stroke:url(#linearGradient9);stroke-width:5.55556;stroke-dasharray:none"
     d="m 16.682764,57.290107 c 0,0 4.69636,22.958543 6.852811,32.674816"
     id="path4" />
</svg>
