<?xml version="1.0" encoding="UTF-8" standalone="no"?>
<svg
   width="30"
   height="30"
   viewBox="0 0 7.9374994 7.9375"
   version="1.1"
   id="svg1"
   xmlns="http://www.w3.org/2000/svg">
  <defs
     id="defs1" />
  <g
     id="layer1">
    <path
       style="fill:none;stroke:#111111;stroke-width:1;stroke-linecap:round;stroke-dasharray:none;stroke-opacity:1"
       d="M 3.3952237,3.2055463 C 3.4573266,4.4001957 2.8723242,6.2060978 2.4658049,7.4163825"
       id="path3" />
    <path
       style="fill:none;stroke:#111111;stroke-width:1;stroke-linecap:round;stroke-dasharray:none;stroke-opacity:1"
       d="M 4.7229647,3.1107079 C 6.3653596,5.7963047 6.078653,5.5369021 6.2214156,7.3594795"
       id="path4" />
    <path
       style="fill:none;stroke:#111111;stroke-width:1;stroke-linecap:round;stroke-dasharray:none;stroke-opacity:1"
       d="M 0.7666791,5.1201814 C 1.7609572,3.6575483 2.3848314,3.2051497 3.5849011,2.883095 5.1228684,2.470361 4.5855593,4.5476581 3.796645,5.020319"
       id="path2" />
    <path
       style="fill:none;stroke:#dd2200;stroke-width:1.05833;stroke-dasharray:none;stroke-opacity:1"
       d="M 1.7920245,3.8567484 C 3.0095651,2.4729196 5.0471543,2.5047024 4.5190181,4.0125765"
       id="path7" />
    <ellipse
       style="fill:#000000;stroke:#dd2200;stroke-width:0.547188;stroke-linecap:round"
       id="path1"
       cx="3.9387381"
       cy="1.5069857"
       rx="1.4040502"
       ry="1.1652169" />
    <path
       style="fill:none;stroke:#ff5555;stroke-width:0.6;stroke-linecap:round;stroke-dasharray:none;stroke-opacity:1"
       d="M 0.77653911,5.1742248 C 3.2530208,5.3821603 4.4817582,4.9084778 5.6637613,4.4008174 6.7299749,3.9428876 7.7152349,3.2704518 7.7152349,3.2704518"
       id="path5" />
  </g>
  <path
     style="fill:none;stroke:#111111;stroke-width:0.529;stroke-dasharray:none;stroke-opacity:1"
     d="M 1.2563649,1.3245398 C 2.6338154,-0.11481749 5.2877708,0.19555508 6.5642634,1.0518405"
     id="path6" />
</svg>
