<?xml version="1.0" encoding="UTF-8" standalone="no"?>
<svg
   width="36"
   height="36"
   viewBox="0 0 100 100"
   version="1.1"
   id="svg8"
   xmlns:xlink="http://www.w3.org/1999/xlink"
   xmlns="http://www.w3.org/2000/svg">
  <defs
     id="defs8">
    <linearGradient
       id="linearGradient1">
      <stop
         style="stop-color:#afbb00;stop-opacity:0.21621622;"
         offset="0"
         id="stop2" />
      <stop
         style="stop-color:#a58200;stop-opacity:1;"
         offset="1"
         id="stop1" />
    </linearGradient>
    <radialGradient
       xlink:href="#linearGradient1"
       id="radialGradient2"
       cx="52.920729"
       cy="54.029803"
       fx="52.920729"
       fy="54.029803"
       r="37.823819"
       gradientTransform="matrix(1.2286999,0,0,1.1395572,-15.845301,-9.9996065)"
       gradientUnits="userSpaceOnUse" />
  </defs>
  <path
     style="opacity:1;fill:url(#radialGradient2);stroke-width:10.6338;stroke-linecap:round;stroke-miterlimit:2.8;stroke-opacity:0.351967"
     d="M 22.749445,30.389357 C 10.83935,32.014384 1.4138195,33.730637 2.8490296,46.802145 5.8642446,74.263922 19.175743,52.259911 24.942047,58.414749 30.29844,64.132056 4.556656,70.016101 24.407815,85.315326 c 8.884213,6.847035 18.845092,-18.850331 19.448134,-5.850103 0.603042,13.000229 29.247584,17.062803 35.428775,14.462754 6.181191,-2.600044 14.473032,-14.300254 -2.864455,-27.950495 -9.519759,-7.495145 -1.439683,-9.410134 3.749519,-5.511061 6.096111,4.580507 8.832109,-0.582396 12.231119,-8.789188 1.364584,-3.294737 5.125865,-19.662849 2.110649,-24.375429 C 91.496343,22.589218 81.395374,4.2263929 67.676146,13.326552 53.956919,22.426716 53.885891,12.79397 52.449312,10.239 46.41888,-0.48618875 34.381701,8.1828966 31.493568,10.726509 19.131191,21.614202 30.287481,30.226854 22.749445,30.389357 Z"
     id="path1" />
</svg>
